<?xml version="1.0" encoding="UTF-8"?>
<svg version="1.1" xmlns="http://www.w3.org/2000/svg" width="350" height="350">
<path d="M0 0 C2.33562464 -0.00407153 4.67124735 -0.00941665 7.00686646 -0.01593018 C13.31460892 -0.0295396 19.62220323 -0.0243317 25.92994809 -0.01479292 C31.87780579 -0.00793896 37.82564568 -0.0131872 43.77350389 -0.0175745 C56.27001277 -0.02610422 68.76645534 -0.01633206 81.26295333 -0.0001734 C91.96000334 0.01323072 102.65695565 0.01089622 113.35400391 -0.00292969 C125.81096833 -0.01902301 138.26787484 -0.02528376 150.72484821 -0.0160929 C157.30628518 -0.01142955 163.88765502 -0.01075472 170.4690876 -0.02070236 C176.65721038 -0.02940336 182.84514964 -0.02329289 189.03325272 -0.00601959 C191.29666909 -0.00207165 193.56010107 -0.00315958 195.82351112 -0.00980759 C210.20779429 -0.04814378 223.65735266 0.12028429 236.73999023 6.88818359 C237.40699951 7.22930176 238.07400879 7.57041992 238.76123047 7.921875 C254.78131126 16.54792496 263.91235818 30.54071075 269.72596169 47.43504143 C271.04229244 52.12776322 270.96088192 56.75189137 270.94491577 61.5954895 C270.94944688 62.60910266 270.953978 63.62271581 270.95864642 64.66704452 C270.97128433 68.05607111 270.9696704 71.44493686 270.96801758 74.83398438 C270.97400329 77.26709703 270.98080894 79.70020778 270.9883728 82.13331604 C271.0042035 88.05299685 271.01048115 93.9726401 271.01159756 99.89233775 C271.01254958 104.70804531 271.01666758 109.52373979 271.02299881 114.33944321 C271.04060567 128.01128377 271.04983885 141.68309298 271.04833786 155.35494496 C271.04825795 156.09133363 271.04817804 156.8277223 271.0480957 157.58642578 C271.04801394 158.32372031 271.04793218 159.06101485 271.04784794 159.82065164 C271.04703576 171.7583862 271.06615763 183.69599437 271.09437244 195.6336924 C271.12315542 207.90931047 271.13690968 220.18486702 271.13518488 232.46051967 C271.13452273 239.34502239 271.13993791 246.2293927 271.16154099 253.1138649 C271.18174346 259.59326589 271.18102385 266.07246012 271.16650772 272.55187798 C271.16442267 274.92333701 271.16910223 277.29481365 271.18122864 279.6662426 C271.28399598 301.16452333 267.87667367 318.08072636 252.67749023 334.38818359 C244.00574346 342.76183907 232.67124762 350.48767894 220.19233036 350.52519798 C218.84433561 350.5328098 218.84433561 350.5328098 217.46910864 350.54057539 C216.4857629 350.54107314 215.50241717 350.5415709 214.48927307 350.54208374 C213.44147122 350.54646599 212.39366937 350.55084825 211.31411594 350.5553633 C207.79144007 350.56875301 204.26878922 350.57493063 200.74609375 350.58105469 C198.22475573 350.58895565 195.70341883 350.5972246 193.18208313 350.60583496 C185.60631833 350.62979549 178.03055476 350.64498506 170.45476404 350.65789503 C168.31345708 350.66160885 166.17215077 350.66558194 164.03084445 350.66964769 C150.72238769 350.69489031 137.41392986 350.71693491 124.10545444 350.72937584 C121.02375345 350.73230536 117.94205248 350.73526704 114.86035156 350.73828125 C114.09444499 350.7390273 113.32853842 350.73977335 112.53942256 350.74054201 C100.14559111 350.75318253 87.75190355 350.78638876 75.35813928 350.82808308 C62.62157917 350.87057773 49.88509255 350.89407969 37.14846176 350.8992964 C30.00229895 350.90270242 22.85636083 350.91436112 15.71026802 350.94739914 C8.98214998 350.97845434 2.25449065 350.98377443 -4.47371101 350.97201538 C-6.93709394 350.97179503 -9.40049525 350.98006788 -11.86381531 350.99766922 C-35.83085277 351.15953691 -35.83085277 351.15953691 -46.32250977 345.38818359 C-47.31464194 344.84470968 -48.30677412 344.30123577 -49.32897091 343.74129295 C-63.99051317 335.31630904 -73.40747648 322.05210333 -78.27937126 306.00738907 C-80.70198927 296.60084817 -80.00540781 286.57629095 -79.95361328 276.94238281 C-79.95875976 274.49823488 -79.96604651 272.05409068 -79.97529602 269.60995483 C-79.99181565 263.69394013 -79.98524085 257.77822885 -79.9672078 251.862244 C-79.95311248 247.050047 -79.94930377 242.23793968 -79.95265007 237.42572403 C-79.95312751 236.73766947 -79.95360495 236.0496149 -79.95409686 235.3407102 C-79.95512331 233.9424377 -79.95617868 232.54416521 -79.95726263 231.14589275 C-79.96580542 218.81692225 -79.94923235 206.48811134 -79.91943359 194.15917969 C-79.89058947 182.22486676 -79.88352174 170.29078356 -79.89892578 158.35644531 C-79.9157243 145.32410085 -79.91968603 132.29186514 -79.90221542 119.25951779 C-79.90037125 117.86734908 -79.89853652 116.47518036 -79.89671135 115.08301163 C-79.89579926 114.39823813 -79.89488717 113.71346464 -79.89394744 113.00794043 C-79.88836565 108.20633351 -79.89162697 103.4047801 -79.8982563 98.60317612 C-79.90683946 92.13019678 -79.89370719 85.65747239 -79.86640739 79.18454361 C-79.85955053 76.81631699 -79.85939642 74.4480595 -79.86662292 72.07983398 C-79.92221605 51.48002181 -77.3331448 35.11952146 -62.51782227 19.59521484 C-61.43114258 18.50273438 -61.43114258 18.50273438 -60.32250977 17.38818359 C-59.54520508 16.55867188 -59.54520508 16.55867188 -58.75219727 15.71240234 C-54.95533166 12.02487056 -50.41387247 9.63480724 -45.76000977 7.20068359 C-45.14182373 6.8672998 -44.5236377 6.53391602 -43.88671875 6.19042969 C-30.08589186 -0.70044681 -15.00159682 -0.04410531 0 0 Z " fill="#CCE872" transform="translate(79.322509765625,-0.38818359375)"/>
<path d="M0 0 C2.33562464 -0.00407153 4.67124735 -0.00941665 7.00686646 -0.01593018 C13.31460892 -0.0295396 19.62220323 -0.0243317 25.92994809 -0.01479292 C31.87780579 -0.00793896 37.82564568 -0.0131872 43.77350389 -0.0175745 C56.27001277 -0.02610422 68.76645534 -0.01633206 81.26295333 -0.0001734 C91.96000334 0.01323072 102.65695565 0.01089622 113.35400391 -0.00292969 C125.81096833 -0.01902301 138.26787484 -0.02528376 150.72484821 -0.0160929 C157.30628518 -0.01142955 163.88765502 -0.01075472 170.4690876 -0.02070236 C176.65721038 -0.02940336 182.84514964 -0.02329289 189.03325272 -0.00601959 C191.29666909 -0.00207165 193.56010107 -0.00315958 195.82351112 -0.00980759 C210.20779429 -0.04814378 223.65735266 0.12028429 236.73999023 6.88818359 C237.40699951 7.22930176 238.07400879 7.57041992 238.76123047 7.921875 C254.78131126 16.54792496 263.91235818 30.54071075 269.72596169 47.43504143 C271.04229244 52.12776322 270.96088192 56.75189137 270.94491577 61.5954895 C270.94944688 62.60910266 270.953978 63.62271581 270.95864642 64.66704452 C270.97128433 68.05607111 270.9696704 71.44493686 270.96801758 74.83398438 C270.97400329 77.26709703 270.98080894 79.70020778 270.9883728 82.13331604 C271.0042035 88.05299685 271.01048115 93.9726401 271.01159756 99.89233775 C271.01254958 104.70804531 271.01666758 109.52373979 271.02299881 114.33944321 C271.04060567 128.01128377 271.04983885 141.68309298 271.04833786 155.35494496 C271.04825795 156.09133363 271.04817804 156.8277223 271.0480957 157.58642578 C271.04801394 158.32372031 271.04793218 159.06101485 271.04784794 159.82065164 C271.04703576 171.7583862 271.06615763 183.69599437 271.09437244 195.6336924 C271.12315542 207.90931047 271.13690968 220.18486702 271.13518488 232.46051967 C271.13452273 239.34502239 271.13993791 246.2293927 271.16154099 253.1138649 C271.18174346 259.59326589 271.18102385 266.07246012 271.16650772 272.55187798 C271.16442267 274.92333701 271.16910223 277.29481365 271.18122864 279.6662426 C271.28399598 301.16452333 267.87667367 318.08072636 252.67749023 334.38818359 C244.00574346 342.76183907 232.67124762 350.48767894 220.19233036 350.52519798 C218.84433561 350.5328098 218.84433561 350.5328098 217.46910864 350.54057539 C216.4857629 350.54107314 215.50241717 350.5415709 214.48927307 350.54208374 C213.44147122 350.54646599 212.39366937 350.55084825 211.31411594 350.5553633 C207.79144007 350.56875301 204.26878922 350.57493063 200.74609375 350.58105469 C198.22475573 350.58895565 195.70341883 350.5972246 193.18208313 350.60583496 C185.60631833 350.62979549 178.03055476 350.64498506 170.45476404 350.65789503 C168.31345708 350.66160885 166.17215077 350.66558194 164.03084445 350.66964769 C150.72238769 350.69489031 137.41392986 350.71693491 124.10545444 350.72937584 C121.02375345 350.73230536 117.94205248 350.73526704 114.86035156 350.73828125 C114.09444499 350.7390273 113.32853842 350.73977335 112.53942256 350.74054201 C100.14559111 350.75318253 87.75190355 350.78638876 75.35813928 350.82808308 C62.62157917 350.87057773 49.88509255 350.89407969 37.14846176 350.8992964 C30.00229895 350.90270242 22.85636083 350.91436112 15.71026802 350.94739914 C8.98214998 350.97845434 2.25449065 350.98377443 -4.47371101 350.97201538 C-6.93709394 350.97179503 -9.40049525 350.98006788 -11.86381531 350.99766922 C-35.83085277 351.15953691 -35.83085277 351.15953691 -46.32250977 345.38818359 C-47.31464194 344.84470968 -48.30677412 344.30123577 -49.32897091 343.74129295 C-63.99051317 335.31630904 -73.40747648 322.05210333 -78.27937126 306.00738907 C-80.70198927 296.60084817 -80.00540781 286.57629095 -79.95361328 276.94238281 C-79.95875976 274.49823488 -79.96604651 272.05409068 -79.97529602 269.60995483 C-79.99181565 263.69394013 -79.98524085 257.77822885 -79.9672078 251.862244 C-79.95311248 247.050047 -79.94930377 242.23793968 -79.95265007 237.42572403 C-79.95312751 236.73766947 -79.95360495 236.0496149 -79.95409686 235.3407102 C-79.95512331 233.9424377 -79.95617868 232.54416521 -79.95726263 231.14589275 C-79.96580542 218.81692225 -79.94923235 206.48811134 -79.91943359 194.15917969 C-79.89058947 182.22486676 -79.88352174 170.29078356 -79.89892578 158.35644531 C-79.9157243 145.32410085 -79.91968603 132.29186514 -79.90221542 119.25951779 C-79.90037125 117.86734908 -79.89853652 116.47518036 -79.89671135 115.08301163 C-79.89579926 114.39823813 -79.89488717 113.71346464 -79.89394744 113.00794043 C-79.88836565 108.20633351 -79.89162697 103.4047801 -79.8982563 98.60317612 C-79.90683946 92.13019678 -79.89370719 85.65747239 -79.86640739 79.18454361 C-79.85955053 76.81631699 -79.85939642 74.4480595 -79.86662292 72.07983398 C-79.92221605 51.48002181 -77.3331448 35.11952146 -62.51782227 19.59521484 C-61.43114258 18.50273438 -61.43114258 18.50273438 -60.32250977 17.38818359 C-59.54520508 16.55867188 -59.54520508 16.55867188 -58.75219727 15.71240234 C-54.95533166 12.02487056 -50.41387247 9.63480724 -45.76000977 7.20068359 C-45.14182373 6.8672998 -44.5236377 6.53391602 -43.88671875 6.19042969 C-30.08589186 -0.70044681 -15.00159682 -0.04410531 0 0 Z M-50.32250977 22.38818359 C-50.99024414 22.87287109 -51.65797852 23.35755859 -52.34594727 23.85693359 C-61.74316502 31.24339296 -66.85686129 42.8994211 -69.32250977 54.38818359 C-69.41100623 55.7987812 -69.45151458 57.21289005 -69.45393753 58.62625885 C-69.45777868 59.46980439 -69.46161982 60.31334992 -69.46557736 61.18245745 C-69.46471088 62.10423013 -69.4638444 63.02600282 -69.46295166 63.97570801 C-69.46592278 64.95887859 -69.4688939 65.94204917 -69.47195506 66.9550128 C-69.48064635 70.25891683 -69.4821507 73.56278465 -69.48364258 76.86669922 C-69.48827056 79.23202594 -69.49329519 81.5973519 -69.49868774 83.962677 C-69.51181835 90.39692365 -69.51829523 96.83116335 -69.5226984 103.26542091 C-69.52546319 107.2864406 -69.52970108 111.30745789 -69.53420258 115.32847595 C-69.54639646 126.47018533 -69.55669413 137.61189279 -69.56007767 148.7536087 C-69.56029723 149.4666114 -69.5605168 150.17961409 -69.56074302 150.91422293 C-69.5609613 151.62890243 -69.56117957 152.34358193 -69.56140447 153.07991838 C-69.56184793 154.52805106 -69.56229449 155.97618373 -69.56274414 157.42431641 C-69.56296557 158.14263545 -69.563187 158.86095449 -69.56341514 159.60104078 C-69.56735846 171.22598983 -69.5847977 182.85087602 -69.60810366 194.47580081 C-69.6318604 206.42247898 -69.64428155 218.36912568 -69.64544559 230.31582785 C-69.64636015 237.01868054 -69.65237825 243.721439 -69.6702652 250.42427063 C-69.6867762 256.73453261 -69.68888655 263.0446397 -69.68012619 269.35491562 C-69.67935736 271.66551504 -69.68367811 273.97612289 -69.69358444 276.2867012 C-69.77131554 295.55390995 -68.58960525 312.05981851 -54.51000977 326.82568359 C-38.92378036 341.28689193 -21.92887527 341.9839495 -1.72460938 341.90576172 C0.64057342 341.91119025 3.00575283 341.91831699 5.3709259 341.92700195 C11.75928099 341.9451501 18.14737606 341.93820316 24.53573537 341.92548561 C28.53304141 341.91942162 32.53031055 341.91972669 36.5276165 341.92344666 C37.52659725 341.92436605 37.52659725 341.92436605 38.54575942 341.92530403 C39.89917745 341.92658307 41.25259547 341.92787993 42.60601347 341.92919439 C55.26134715 341.94056799 67.91656444 341.92753683 80.57187902 341.90599293 C91.40539941 341.88812071 102.23874832 341.89123326 113.07226562 341.90966797 C125.68745552 341.93112473 138.30254375 341.93947398 150.91774935 341.92721891 C152.26555946 341.92594487 153.61336959 341.92468738 154.96117973 341.92344666 C155.95561313 341.922521 155.95561313 341.922521 156.97013609 341.92157665 C161.61794975 341.91813843 166.26569578 341.92411691 170.91349983 341.93336487 C177.18046828 341.94496504 183.44711454 341.9368213 189.71404839 341.91378784 C192.00648846 341.90852325 194.2989559 341.90997568 196.59138489 341.9188385 C214.4876993 341.98162085 231.2868789 340.62997337 244.98999023 327.57568359 C255.83913139 315.88345989 261.00392405 302.16052606 260.93818665 286.30618286 C260.94201219 285.31818345 260.94583774 284.33018404 260.94977921 283.31224525 C260.96006199 280.0160514 260.95612602 276.72003328 260.95214844 273.42382812 C260.95649752 271.05466552 260.96168132 268.68550433 260.96763611 266.31634521 C260.98101619 259.89071673 260.98160586 253.46514709 260.97907281 247.03950739 C260.97778785 243.02316979 260.98041427 239.00684103 260.98406029 234.99050522 C260.98495307 233.98900581 260.98495307 233.98900581 260.98586389 232.96727409 C260.9870757 231.61070968 260.98828983 230.25414526 260.98950627 228.89758085 C261.00037183 216.18803558 260.998224 203.47851687 260.99212142 190.76897012 C260.98695333 179.15585283 260.99820658 167.54281944 261.01721964 155.92971875 C261.03661725 143.98969823 261.04485066 132.04971738 261.04109639 120.10968101 C261.03918723 113.41254793 261.0419103 106.71549682 261.05581093 100.0183754 C261.06839589 93.71954771 261.06643864 87.42088783 261.05340004 81.12206268 C261.05103619 78.81384855 261.05376204 76.50562259 261.06202316 74.19742203 C261.07250828 71.03947154 261.06437539 67.88208229 261.05171204 64.72415161 C261.05908632 63.8171275 261.06646061 62.91010338 261.07405835 61.97559369 C260.95893009 48.26925928 255.33991321 36.49355692 246.00170898 26.64599609 C235.12408196 16.07915842 221.49064583 10.89993746 206.38189697 11.00050354 C204.90156798 10.99242523 204.90156798 10.99242523 203.39133334 10.98418373 C200.1106126 10.96996708 196.83029895 10.97699244 193.54956055 10.98413086 C191.18659137 10.97842393 188.82362494 10.97145842 186.46066284 10.96333313 C180.0596528 10.94542013 173.65877998 10.94656696 167.25775242 10.95227551 C163.25376743 10.95534403 159.24979427 10.95237175 155.24581146 10.94779778 C154.57957106 10.94704935 153.91333066 10.94630093 153.22690116 10.94552983 C151.87308273 10.94399822 150.51926431 10.94245988 149.16544589 10.94091486 C136.48818658 10.92720787 123.8109891 10.93261421 111.13373122 10.94410007 C99.56221441 10.95402469 87.99085768 10.94110198 76.41936556 10.91716588 C64.51089408 10.8927202 52.602497 10.88318077 40.69400096 10.88981861 C34.01911929 10.89329947 27.34434243 10.8908152 20.66947174 10.87356758 C14.38861357 10.85804605 8.10805966 10.862112 1.82721329 10.88087273 C-0.46964588 10.88454451 -2.76652785 10.88149162 -5.06336594 10.87098694 C-22.22285665 10.79853817 -36.05660929 11.79331288 -50.32250977 22.38818359 Z " fill="#215836" transform="translate(79.322509765625,-0.38818359375)"/>
<path d="M0 0 C15.84 0 31.68 0 48 0 C48.17737744 58.55426522 48.17737744 58.55426522 47.5625 80.9375 C47.54285187 81.70081635 47.52320374 82.46413269 47.50296021 83.25057983 C47.18351159 95.26595362 47.18351159 95.26595362 46 100 C31.15 100 16.3 100 1 100 C0.15037613 66.65226318 -0.11502272 33.35658819 0 0 Z " fill="#225837" transform="translate(151,96)"/>
<path d="M0 0 C16.5 0 33 0 50 0 C50 10.89 50 21.78 50 33 C33.5 33 17 33 0 33 C0 22.11 0 11.22 0 0 Z " fill="#225735" transform="translate(150,205)"/>
<path d="M0 0 C0.33 0 0.66 0 1 0 C1.74523612 32.67596799 2.10343553 65.31437253 2 98 C16.85 98 31.7 98 47 98 C47.66 66.65 48.32 35.3 49 3 C49.33 3 49.66 3 50 3 C53.84910425 12.11871126 53.32305378 21.32911727 53 31 C52.9685791 32.03350586 52.9371582 33.06701172 52.90478516 34.13183594 C52.80103362 37.42168517 52.68528601 40.71080829 52.5625 44 C52.52350586 45.05719238 52.48451172 46.11438477 52.44433594 47.20361328 C52.40211914 48.1882959 52.35990234 49.17297852 52.31640625 50.1875 C52.26141968 51.50814453 52.26141968 51.50814453 52.20532227 52.85546875 C52 55 52 55 51 57 C50.92512184 59.73923014 50.90882994 62.45287647 50.9375 65.19140625 C50.94128662 66.010681 50.94507324 66.82995575 50.94897461 67.67405701 C50.9652996 71.18128596 50.99319198 74.68839866 51.02050781 78.19555664 C51.038762 80.75666754 51.05075856 83.31775846 51.0625 85.87890625 C51.07079834 86.65738419 51.07909668 87.43586212 51.08764648 88.2379303 C51.10813439 92.91238933 50.78362843 97.38518509 50.07769775 102.00897217 C49.94801056 105.33224481 51.65065075 108.01740376 53 111 C53.38139958 113.94888686 53.33370359 116.84416944 53.25 119.8125 C53.23138916 120.99791382 53.23138916 120.99791382 53.21240234 122.20727539 C52.898526 137.65221101 52.898526 137.65221101 50 142 C44.81780433 143.1408458 39.64321631 143.14686334 34.36328125 143.1328125 C33.56141891 143.13376923 32.75955658 143.13472595 31.93339539 143.13571167 C30.25011109 143.13638822 28.56682411 143.13457081 26.88354492 143.13037109 C24.30967374 143.1249941 21.73597535 143.13034476 19.16210938 143.13671875 C17.52083295 143.13605829 15.87955663 143.13477779 14.23828125 143.1328125 C13.47155594 143.13483673 12.70483063 143.13686096 11.91487122 143.13894653 C8.47507158 143.12384244 5.28690801 143.08825131 2 142 C2 141.34 2 140.68 2 140 C17.84 140 33.68 140 50 140 C50 129.11 50 118.22 50 107 C33.5 107 17 107 0 107 C0.33 106.01 0.66 105.02 1 104 C0.01 103.34 -0.98 102.68 -2 102 C-1.67 101.01 -1.34 100.02 -1 99 C-0.90241955 96.12966187 -0.86009055 93.28437438 -0.8671875 90.4140625 C-0.86623077 89.5612973 -0.86527405 88.7085321 -0.86428833 87.82992554 C-0.86360731 86.01926602 -0.86545615 84.20860406 -0.86962891 82.39794922 C-0.87491247 79.67018897 -0.8697158 76.94259841 -0.86328125 74.21484375 C-0.85166962 63.397924 -0.85166962 63.397924 -1.50390625 52.60546875 C-2.36978421 42.99422337 -2.10464132 33.3283209 -2.0625 23.6875 C-2.05747354 21.67513133 -2.05291266 19.66276143 -2.04882812 17.65039062 C-2.03791664 12.76689646 -2.02071559 7.88346201 -2 3 C-1.34 3 -0.68 3 0 3 C0 2.01 0 1.02 0 0 Z " fill="#B3D17D" transform="translate(150,98)"/>
<path d="M0 0 C1.65 0 3.3 0 5 0 C5 0.66 5 1.32 5 2 C6.98 2 8.96 2 11 2 C11 2.66 11 3.32 11 4 C12.65 4.33 14.3 4.66 16 5 C16.27263672 6.15628906 16.27263672 6.15628906 16.55078125 7.3359375 C16.80214844 8.33882812 17.05351562 9.34171875 17.3125 10.375 C17.55613281 11.37273438 17.79976563 12.37046875 18.05078125 13.3984375 C18.82193858 16.3084986 18.82193858 16.3084986 22 18 C22 19.32 22 20.64 22 22 C22.66 22 23.32 22 24 22 C24.33 22.99 24.66 23.98 25 25 C24.34 25.33 23.68 25.66 23 26 C22.5875 25.49210937 22.175 24.98421875 21.75 24.4609375 C12.72312522 13.70122515 0.72513763 6.30380619 -13.48841441 4.7232945 C-16.09748751 4.61744944 -18.69118506 4.59971098 -21.30232239 4.61904907 C-22.78370973 4.61202911 -22.78370973 4.61202911 -24.2950241 4.60486734 C-27.57808886 4.59297732 -30.86073155 4.60235128 -34.14379883 4.61181641 C-36.50838971 4.60774797 -38.87297869 4.60240457 -41.23756409 4.59588623 C-47.64264682 4.58223704 -54.04758419 4.58750208 -60.45266938 4.59702349 C-64.45865472 4.60236911 -68.46463019 4.60134637 -72.47061729 4.5985527 C-73.13714642 4.598093 -73.80367554 4.59763331 -74.49040252 4.59715968 C-75.84478668 4.59620042 -77.19917083 4.59522778 -78.55355497 4.5942419 C-91.23555713 4.58569997 -103.91749408 4.59550226 -116.59948554 4.611643 C-127.45803931 4.62503583 -138.31649681 4.62272432 -149.17504883 4.60888672 C-161.80924124 4.59279367 -174.44337654 4.58653356 -187.07757777 4.59572351 C-188.42769697 4.59667907 -189.77781619 4.59762218 -191.12793541 4.5985527 C-191.79207096 4.59901553 -192.45620651 4.59947836 -193.14046738 4.59995521 C-197.79824222 4.60253465 -202.4559791 4.59804831 -207.11374855 4.59111404 C-213.3970273 4.58241298 -219.68012529 4.58852367 -225.96338463 4.60579681 C-228.26227392 4.60974541 -230.56117857 4.6086557 -232.86006165 4.60200882 C-249.64585029 4.53630865 -249.64585029 4.53630865 -266 8 C-266.33 7.34 -266.66 6.68 -267 6 C-264.09399739 4.74335022 -262.20395416 4 -259 4 C-259 3.34 -259 2.68 -259 2 C-252.98162821 1.1244944 -247.15100767 0.85577778 -241.07417297 0.86628723 C-240.10306349 0.86402167 -239.13195402 0.86175612 -238.13141698 0.85942191 C-234.89269346 0.85311543 -231.65401216 0.8539091 -228.4152832 0.85473633 C-226.08726955 0.85174288 -223.7592564 0.84833992 -221.4312439 0.84455872 C-215.11959708 0.83573669 -208.80796382 0.83338145 -202.49631143 0.83274293 C-197.22748394 0.83179256 -191.95865961 0.82811306 -186.68983334 0.82457083 C-174.97366669 0.81675702 -163.2575059 0.81390161 -151.54133687 0.81457619 C-150.48821521 0.81463612 -150.48821521 0.81463612 -149.41381836 0.81469727 C-148.71087822 0.81473815 -148.00793809 0.81477903 -147.28369673 0.81482115 C-135.87738307 0.81522809 -124.47110234 0.80564392 -113.06479821 0.7915589 C-101.34515985 0.77720128 -89.62553756 0.77028827 -77.90589017 0.77115268 C-71.32909906 0.77140794 -64.7523453 0.76854053 -58.1755619 0.75797462 C-51.99579552 0.74831677 -45.81610238 0.74819854 -39.63633347 0.75549126 C-37.36633256 0.75653976 -35.09632714 0.75415857 -32.826334 0.7481308 C-29.73242772 0.74044587 -26.63877665 0.7450324 -23.5448761 0.75276184 C-22.19167573 0.7450465 -22.19167573 0.7450465 -20.81113797 0.73717529 C-16.39041642 0.76165196 -13.04114088 1.00166381 -9 3 C-6.33427985 3.49313497 -3.70184283 3.72523632 -1 4 C-0.67 2.68 -0.34 1.36 0 0 Z " fill="#255829" transform="translate(307,7)"/>
<path d="M0 0 C-0.66386719 0.37511719 -1.32773437 0.75023438 -2.01171875 1.13671875 C-7.0144327 4.03610187 -11.04913543 6.80220639 -15 11 C-15.66 11 -16.32 11 -17 11 C-17.2475 11.680625 -17.495 12.36125 -17.75 13.0625 C-19 16 -19 16 -20.875 19.1875 C-24.77917081 25.85529734 -28.11802915 33.42230864 -28.13142776 41.23807526 C-28.13526891 42.08162079 -28.13911005 42.92516633 -28.1430676 43.79427385 C-28.14176787 45.17693288 -28.14176787 45.17693288 -28.14044189 46.58752441 C-28.14341302 47.57069499 -28.14638414 48.55386558 -28.1494453 49.5668292 C-28.15813658 52.87073324 -28.15964093 56.17460106 -28.16113281 59.47851562 C-28.1657608 61.84384234 -28.17078543 64.20916831 -28.17617798 66.57449341 C-28.18930858 73.00874005 -28.19578547 79.44297976 -28.20018864 85.87723732 C-28.20295342 89.898257 -28.20719132 93.91927429 -28.21169281 97.94029236 C-28.22388669 109.08200174 -28.23418437 120.2237092 -28.2375679 131.36542511 C-28.23789725 132.43492915 -28.23789725 132.43492915 -28.23823325 133.52603933 C-28.23845153 134.24071883 -28.23866981 134.95539833 -28.2388947 135.69173479 C-28.23933816 137.13986747 -28.23978472 138.58800014 -28.24023438 140.03613281 C-28.2404558 140.75445186 -28.24067723 141.4727709 -28.24090537 142.21285719 C-28.2448487 153.83780624 -28.26228793 165.46269242 -28.2855939 177.08761722 C-28.30935063 189.03429539 -28.32177179 200.98094209 -28.32293582 212.92764425 C-28.32385039 219.63049694 -28.32986848 226.33325541 -28.34775543 233.03608704 C-28.36426644 239.34634902 -28.36637679 245.65645611 -28.35761642 251.96673203 C-28.35684759 254.27733145 -28.36116834 256.5879393 -28.37107468 258.89851761 C-28.44215524 276.51725761 -27.86632282 292.52953728 -15.765625 306.59765625 C-13.89744067 308.47577773 -12.00814571 310.27351628 -10 312 C-10.66 312.66 -11.32 313.32 -12 314 C-12 313.34 -12 312.68 -12 312 C-12.8353125 311.6596875 -12.8353125 311.6596875 -13.6875 311.3125 C-17.71969057 309.02395941 -20.45058599 305.82412102 -23 302 C-23.99 302 -24.98 302 -26 302 C-25.34 301.01 -24.68 300.02 -24 299 C-24.66 298.34 -25.32 297.68 -26 297 C-26.125 294.375 -26.125 294.375 -26 292 C-26.99 292.33 -27.98 292.66 -29 293 C-30.69571715 286.37443119 -31.28481199 280.37240553 -31.24723816 273.54977417 C-31.24965257 272.53430232 -31.25206699 271.51883047 -31.25455457 270.47258675 C-31.26016431 267.08956807 -31.25154905 263.7067405 -31.24291992 260.32373047 C-31.24399347 257.89044138 -31.24593323 255.45715253 -31.24867249 253.02386475 C-31.25300985 247.11314246 -31.24809387 241.2024712 -31.23882218 235.29175864 C-31.2284073 228.40320528 -31.22850919 221.51466388 -31.22899476 214.62610413 C-31.22949471 202.33356931 -31.22035163 190.04106057 -31.20581055 177.74853516 C-31.19171836 165.82925949 -31.1846401 153.91000677 -31.18530273 141.99072266 C-31.18534269 141.25627009 -31.18538265 140.52181752 -31.18542381 139.76510881 C-31.18546417 139.03190609 -31.18550452 138.29870337 -31.1855461 137.54328239 C-31.18623647 123.95838093 -31.18034369 110.37348918 -31.17139288 96.78859087 C-31.16838077 91.99026423 -31.16731383 87.19193939 -31.16686058 82.39361191 C-31.16610603 75.93395604 -31.15974916 69.47431948 -31.14969444 63.01467133 C-31.14677432 60.64392113 -31.14554309 58.27316816 -31.14612198 55.90241623 C-31.14661304 52.66700477 -31.14095332 49.43166062 -31.13371277 46.19625854 C-31.13526137 45.25783234 -31.13680997 44.31940613 -31.1384055 43.35254276 C-31.11193361 36.19143218 -30.41431602 29.79026381 -28 23 C-27.65023242 21.67088318 -27.30903983 20.33917261 -27 19 C-26.01 19 -25.02 19 -24 19 C-23.67 18.01 -23.34 17.02 -23 16 C-22.34 16 -21.68 16 -21 16 C-20.9175 15.278125 -20.835 14.55625 -20.75 13.8125 C-19.82300796 10.33627983 -18.53791915 8.53791915 -16 6 C-13.25 5.1875 -13.25 5.1875 -11 5 C-10.67 4.01 -10.34 3.02 -10 2 C-6.22103295 -0.35135728 -4.24429961 -1.3625951 0 0 Z " fill="#2B5823" transform="translate(39,17)"/>
<path d="M0 0 C2.475 0.495 2.475 0.495 5 1 C5.33 1.99 5.66 2.98 6 4 C7.32 3.34 8.64 2.68 10 2 C12.6921369 7.01185048 12.26459314 12.09890275 12.22273254 17.62805176 C12.22247454 18.71093743 12.22221653 19.7938231 12.22195071 20.90952349 C12.21855398 24.54458672 12.20069304 28.17943412 12.18286133 31.81445312 C12.1773471 34.41788067 12.17267806 37.02131012 12.16879272 39.6247406 C12.15755232 45.96583251 12.13525629 52.30683932 12.10880206 58.64788425 C12.08742696 63.80122394 12.06963389 68.95456403 12.05438805 74.10792542 C12.05220787 74.84127508 12.0500277 75.57462474 12.04778146 76.33019713 C12.04335587 77.81996579 12.03893301 79.30973447 12.03451284 80.79950315 C11.9925278 94.77030319 11.93741645 108.741029 11.87832262 122.71176559 C11.82465656 135.49560503 11.78741115 148.27943058 11.757924 161.06334668 C11.72750216 174.18867323 11.68605961 187.31392235 11.63263911 200.43917608 C11.60283947 207.8085357 11.57741879 215.1778481 11.56351662 222.54725647 C11.55031219 229.47479017 11.5215866 236.40211166 11.48231125 243.32954597 C11.47029569 245.87527128 11.46339152 248.42102648 11.46190834 250.96677971 C11.45908572 254.43539864 11.43799553 257.9034354 11.41218567 261.37194824 C11.41566901 262.38507473 11.41915234 263.39820123 11.42274123 264.44202852 C11.32222482 273.18645758 11.32222482 273.18645758 8 277 C7.34 277 6.68 277 6 277 C5.9175 277.78375 5.835 278.5675 5.75 279.375 C5 282 5 282 2.953125 283.1640625 C2.30859375 283.43992187 1.6640625 283.71578125 1 284 C1.33773438 283.154375 1.67546875 282.30875 2.0234375 281.4375 C2.46945312 280.303125 2.91546875 279.16875 3.375 278 C3.81585938 276.88625 4.25671875 275.7725 4.7109375 274.625 C7.3632769 267.16630012 8.29329143 260.7791644 8.26069641 252.91799927 C8.26643473 251.43600015 8.26643473 251.43600015 8.27228898 249.92406166 C8.28257176 246.62786781 8.27863578 243.33184969 8.2746582 240.03564453 C8.27900728 237.66648193 8.28419109 235.29732073 8.29014587 232.92816162 C8.30352596 226.50253313 8.30411563 220.0769635 8.30158257 213.6513238 C8.30029761 209.6349862 8.30292404 205.61865744 8.30657005 201.60232162 C8.30716524 200.93465535 8.30776043 200.26698908 8.30837366 199.5790905 C8.30958546 198.22252608 8.3107996 196.86596167 8.31201603 195.50939725 C8.32288159 182.79985199 8.32073377 170.09033328 8.31463119 157.38078652 C8.3094631 145.76766923 8.32071635 134.15463585 8.33972941 122.54153515 C8.35912702 110.60151464 8.36736042 98.66153378 8.36360615 86.72149742 C8.361697 80.02436434 8.36442007 73.32731323 8.37832069 66.6301918 C8.39090565 60.33136411 8.3889484 54.03270423 8.37590981 47.73387909 C8.37354596 45.42566496 8.37627181 43.11743899 8.38453293 40.80923843 C8.39501805 37.65128795 8.38688516 34.49389869 8.3742218 31.33596802 C8.38159609 30.4289439 8.38897037 29.52191979 8.39656812 28.58741009 C8.32475634 20.03802152 5.96416995 12.57311504 2.3125 4.875 C1.87550781 3.94429687 1.43851562 3.01359375 0.98828125 2.0546875 C0.66214844 1.37664063 0.33601563 0.69859375 0 0 Z " fill="#25572B" transform="translate(331,33)"/>
<path d="M0 0 C0.99731612 0.31864077 0.99731612 0.31864077 2.01478004 0.64371872 C13.44029165 3.80789937 24.81382502 3.40708128 36.57958984 3.35644531 C38.95435664 3.35723722 41.32912331 3.35933766 43.70388794 3.36264038 C50.1208014 3.36775139 56.53755308 3.35428651 62.95444059 3.33711338 C68.99756812 3.32218414 75.04070255 3.32332647 81.08384497 3.32273683 C93.05250758 3.32105328 105.02110925 3.30529056 116.98974609 3.28125 C128.5906627 3.25796517 140.19154068 3.24382027 151.79248047 3.24023438 C152.86570002 3.23990022 152.86570002 3.23990022 153.96060078 3.23955932 C155.40206909 3.2391167 156.84353741 3.23867468 158.28500573 3.23823325 C159.35172438 3.2379039 159.35172438 3.2379039 160.4399929 3.2375679 C161.50410683 3.23724392 161.50410683 3.23724392 162.58971801 3.2369134 C173.66862403 3.23321016 184.74752388 3.22185362 195.8264231 3.2094375 C199.16811932 3.20574619 202.50981495 3.2024946 205.85151243 3.20018864 C213.4666632 3.19491345 221.0817775 3.1853484 228.69691086 3.16798782 C231.00316093 3.16347069 233.30941499 3.16062754 235.61566925 3.15958023 C238.76328949 3.15783017 241.9108361 3.14993596 245.05844116 3.14044189 C245.9707932 3.14130838 246.88314524 3.14217486 247.82314432 3.1430676 C252.65446088 3.12120667 257.23563848 2.81300572 262 2 C262 2.99 262 3.98 262 5 C256.58460761 6.12579912 251.34166271 6.14268277 245.83892822 6.13371277 C244.81840827 6.13597833 243.79788831 6.13824388 242.74644351 6.14057809 C239.32867217 6.14690571 235.91094061 6.14608954 232.49316406 6.14526367 C230.04235279 6.1482558 227.59154199 6.15165845 225.14073181 6.15544128 C219.17714967 6.16335934 213.21358317 6.16649551 207.24999723 6.16705366 C202.40509468 6.16752909 197.5601954 6.16958518 192.71529388 6.17275429 C178.98182788 6.18155494 165.24836968 6.1861742 151.51490083 6.18542381 C150.7750568 6.18538386 150.03521277 6.1853439 149.27294922 6.18530273 C148.16183105 6.18524141 148.16183105 6.18524141 147.02826604 6.18517885 C135.00547925 6.18477181 122.98272369 6.19435744 110.95994595 6.2084411 C98.61774867 6.22278514 86.27556665 6.22971248 73.93336082 6.22884732 C67.00284489 6.22851483 60.07236176 6.2312852 53.14185333 6.24202538 C46.631357 6.25205019 40.12091838 6.25181543 33.61041451 6.24450874 C31.21498832 6.24345772 28.81955789 6.24585614 26.42413902 6.2518692 C23.16705497 6.25951893 19.91021551 6.25499138 16.65313721 6.24723816 C15.69420948 6.25238172 14.73528176 6.25752529 13.74729562 6.26282471 C12.44582451 6.25592652 12.44582451 6.25592652 11.11806107 6.24888897 C10.36567004 6.24910634 9.61327902 6.24932371 8.83808827 6.24954766 C7 6 7 6 5 4 C3.35008418 3.29289322 1.68437744 2.62056011 0 2 C0 1.34 0 0.68 0 0 Z " fill="#28591A" transform="translate(41,337)"/>
<path d="M0 0 C0.98451326 -0.00170885 1.96902653 -0.0034177 2.98337352 -0.00517833 C6.25525755 -0.00845104 9.52693273 0.00249373 12.79879761 0.01345825 C15.15492244 0.01402285 17.51104762 0.01370487 19.86717224 0.01257324 C26.24450688 0.01200061 32.62176593 0.0237405 38.99908304 0.03772116 C44.99431052 0.04897363 50.98953818 0.05096948 56.98477422 0.0530249 C68.85329751 0.05739362 80.7217932 0.0706803 92.59030151 0.08963013 C104.11406314 0.10801029 115.63781724 0.12215632 127.16159058 0.13064575 C127.87285528 0.1311712 128.58411999 0.13169665 129.31693818 0.13223802 C132.88542482 0.13484824 136.45391151 0.13737562 140.02239823 0.13986182 C169.58964683 0.16056867 199.15686821 0.19592119 228.72409058 0.24050903 C228.72409058 0.57050903 228.72409058 0.90050903 228.72409058 1.24050903 C178.89409058 1.57050903 129.06409058 1.90050903 77.72409058 2.24050903 C77.72409058 2.90050903 77.72409058 3.56050903 77.72409058 4.24050903 C46.04409058 4.24050903 14.36409058 4.24050903 -18.27590942 4.24050903 C-18.27590942 4.90050903 -18.27590942 5.56050903 -18.27590942 6.24050903 C-19.59590942 5.58050903 -20.91590942 4.92050903 -22.27590942 4.24050903 C-21.61590942 4.24050903 -20.95590942 4.24050903 -20.27590942 4.24050903 C-20.27590942 3.58050903 -20.27590942 2.92050903 -20.27590942 2.24050903 C-13.43382235 0.63307274 -7.01778167 -0.04538521 0 0 Z " fill="#18311F" transform="translate(66.27590942382813,-0.240509033203125)"/>
<path d="M0 0 C15.84 0 31.68 0 48 0 C48.02103863 7.51312685 48.04106655 15.02614539 48.05175018 22.53927612 C48.05700467 26.03889237 48.0640126 29.53848393 48.07543945 33.03808594 C48.08850225 37.06445539 48.09325834 41.09079918 48.09765625 45.1171875 C48.10281754 46.35612762 48.10797882 47.59506775 48.11329651 48.87155151 C48.11372999 55.64646764 47.85189512 62.27624076 47 69 C46.67 69 46.34 69 46 69 C45.97494385 68.10692139 45.9498877 67.21384277 45.92407227 66.29370117 C45.82889814 62.97814546 45.72966717 59.66276271 45.62768555 56.34741211 C45.58439207 54.91288997 45.54271301 53.47831816 45.50268555 52.04370117 C45.44484733 49.9808048 45.38119247 47.91815717 45.31640625 45.85546875 C45.26141968 43.99378052 45.26141968 43.99378052 45.20532227 42.09448242 C45.12855879 38.96446653 45.12855879 38.96446653 44 36 C43.84820986 33.6444552 43.75100711 31.28524877 43.68359375 28.92578125 C43.66281265 28.2419487 43.64203156 27.55811615 43.62062073 26.8535614 C43.55533846 24.6733079 43.49633983 22.49293595 43.4375 20.3125 C43.39429447 18.83267014 43.35067953 17.35285217 43.30664062 15.87304688 C43.19967917 12.24882378 43.09835177 8.62446811 43 5 C40.02903034 3.51451517 37.0153725 3.89869735 33.76171875 3.9375 C32.68504692 3.94317993 32.68504692 3.94317993 31.58662415 3.94897461 C28.51316383 3.96532491 25.43983594 3.99335266 22.36645508 4.02050781 C20.12321595 4.03865043 17.87999886 4.05071281 15.63671875 4.0625 C14.94696457 4.07079834 14.25721039 4.07909668 13.54655457 4.08764648 C9.79334559 4.10660749 6.73451441 3.74690288 3 3 C2.67 27.09 2.34 51.18 2 76 C1.67 76 1.34 76 1 76 C0.04625272 59.19813419 -0.12224636 42.45092727 -0.0625 25.625 C-0.05746818 23.12369883 -0.05290829 20.62239666 -0.04882812 18.12109375 C-0.03883406 12.08068336 -0.01923699 6.04041575 0 0 Z " fill="#36642F" transform="translate(151,96)"/>
<path d="M0 0 C-6.18184322 1.80690343 -11.70813646 2.28523218 -18.12910461 2.25396729 C-19.12204299 2.25708727 -20.11498136 2.26020725 -21.13800877 2.26342177 C-24.45054684 2.2713712 -27.76290017 2.2650901 -31.07543945 2.25878906 C-33.45595914 2.26150019 -35.83647798 2.26506181 -38.21699524 2.26940918 C-44.00151456 2.27757342 -49.78597558 2.27639099 -55.57049666 2.2705839 C-60.27041811 2.26606136 -64.97032502 2.26545706 -69.67024803 2.26763153 C-70.67477903 2.26809123 -70.67477903 2.26809123 -71.69960358 2.26856022 C-73.06012812 2.26919968 -74.42065266 2.2698481 -75.78117719 2.2705054 C-88.52389568 2.276202 -101.26658535 2.26966018 -114.00929912 2.25890467 C-124.94607384 2.24995951 -135.88280612 2.25153042 -146.81958008 2.26074219 C-159.52543451 2.27143902 -172.23126375 2.27566352 -184.93712205 2.26951766 C-186.29102496 2.26888056 -187.64492788 2.26825182 -188.9988308 2.26763153 C-189.99802977 2.2671687 -189.99802977 2.2671687 -191.01741457 2.26669653 C-195.71492206 2.26496859 -200.41241358 2.26788661 -205.10991859 2.27259064 C-211.4259337 2.27835196 -217.74186831 2.27438951 -224.05787468 2.26280212 C-226.38031505 2.26014959 -228.70276216 2.26093068 -231.02519989 2.26532745 C-234.18549705 2.27076061 -237.34553325 2.26397605 -240.5058136 2.25396729 C-241.4332276 2.25842873 -242.36064161 2.26289017 -243.31615907 2.26748681 C-244.582191 2.25966357 -244.582191 2.25966357 -245.87379932 2.25168228 C-246.60346214 2.25135758 -247.33312496 2.25103287 -248.08489877 2.25069833 C-250 2 -250 2 -253 0 C-251.14798729 -0.00634791 -251.14798729 -0.00634791 -249.25856018 -0.01282406 C-219.93988423 -0.11353254 -190.62123076 -0.21924813 -161.3025955 -0.33111694 C-157.69277865 -0.34488627 -154.08296164 -0.3586134 -150.47314453 -0.37231445 C-149.75450485 -0.37504276 -149.03586518 -0.37777106 -148.29544854 -0.38058204 C-136.66434745 -0.42463876 -125.03323682 -0.46527872 -113.40211904 -0.50465261 C-101.46461481 -0.54513987 -89.52712827 -0.58930675 -77.58965015 -0.63687855 C-70.88579181 -0.66348868 -64.18193709 -0.68828657 -57.47805786 -0.70907402 C-51.16788708 -0.72869428 -44.85774994 -0.75285411 -38.54760933 -0.78049088 C-36.23211848 -0.78983279 -33.91662026 -0.79751827 -31.60111809 -0.80341911 C-28.43781803 -0.811729 -25.27459857 -0.82601915 -22.11132812 -0.84178162 C-21.19691232 -0.84275972 -20.28249651 -0.84373783 -19.34037113 -0.84474558 C-15.34651521 -0.87030491 -11.48247189 -1.01442175 -7.52429199 -1.5684824 C-4.05519127 -1.99324233 -2.79575274 -1.98032486 0 0 Z " fill="#C1E88B" transform="translate(304,339)"/>
<path d="M0 0 C50.16 0 100.32 0 152 0 C152 0.66 152 1.32 152 2 C152.68707031 2.04898437 153.37414062 2.09796875 154.08203125 2.1484375 C155.43361328 2.26058594 155.43361328 2.26058594 156.8125 2.375 C157.70582031 2.44460938 158.59914063 2.51421875 159.51953125 2.5859375 C162 3 162 3 165 5 C162.4372008 4.68981396 159.8747789 4.37693109 157.3125 4.0625 C156.59126953 3.97548828 155.87003906 3.88847656 155.12695312 3.79882812 C152.06047414 3.42076907 149.06773278 3.01440552 146.04296875 2.37109375 C145.36878906 2.24863281 144.69460938 2.12617187 144 2 C143.67 2.33 143.34 2.66 143 3 C141.15238732 3.09648248 139.3010419 3.12187318 137.45091248 3.12025452 C136.24631378 3.12162918 135.04171509 3.12300385 133.8006134 3.12442017 C132.45358252 3.12088056 131.10655188 3.11724575 129.75952148 3.11352539 C128.35052492 3.11324352 126.94152821 3.11340125 125.53253174 3.1139679 C121.6959237 3.11425589 117.85934666 3.10835894 114.02274585 3.10139394 C110.01753059 3.09516063 106.0123147 3.09455662 102.00709534 3.09336853 C94.41747996 3.09025515 86.82787892 3.08204167 79.23826987 3.07201904 C70.59996076 3.06085812 61.96165099 3.05534751 53.32333648 3.05032361 C35.54888285 3.03985906 17.77444258 3.02225948 0 3 C0 2.01 0 1.02 0 0 Z " fill="#2E503A" transform="translate(144,1)"/>
<path d="M0 0 C0.33 0.33 0.66 0.66 1 1 C3.87804028 1.10016612 6.73215865 1.13438738 9.61070251 1.12698364 C10.52486154 1.12854363 11.43902056 1.13010362 12.38088137 1.13171089 C15.4686993 1.13572508 18.55646875 1.13252962 21.64428711 1.12939453 C23.84805836 1.1307484 26.05182938 1.13252824 28.25559998 1.13470459 C34.25962141 1.13928095 40.26362575 1.13748846 46.2676475 1.1343255 C52.53679499 1.13180263 58.80594096 1.13413927 65.0750885 1.13571167 C76.28185886 1.1376506 87.48862214 1.13453271 98.69539083 1.12945233 C108.863907 1.12498538 119.03241176 1.1257593 129.20092773 1.13037109 C140.99699031 1.1357185 152.79304736 1.13771673 164.58911139 1.13475883 C170.83781652 1.13319626 177.08651379 1.13300173 183.33521843 1.13629532 C189.20953851 1.13917498 195.08383695 1.13719656 200.95815468 1.13140106 C203.11975442 1.13007392 205.28135598 1.13046681 207.44295502 1.13266373 C210.38276625 1.13537704 213.32250715 1.13199181 216.26231384 1.12698364 C217.55991077 1.13032973 217.55991077 1.13032973 218.88372177 1.13374341 C223.07550402 1.2347161 223.07550402 1.2347161 227 0 C236.98222677 -0.25045013 246.87370383 3.23771726 255 9 C255 9.99 255 10.98 255 12 C252.5625 11.625 252.5625 11.625 250 11 C249.67 10.34 249.34 9.68 249 9 C247.36418802 7.90342294 247.36418802 7.90342294 245.375 6.9375 C244.72273438 6.59589844 244.07046875 6.25429688 243.3984375 5.90234375 C237.09576547 3.53114304 230.30242007 3.85945121 223.66725159 3.87974548 C222.64038252 3.87889106 221.61351346 3.87803663 220.55552715 3.87715632 C217.12236807 3.87551213 213.68925808 3.88100552 210.25610352 3.88647461 C207.79204815 3.88675674 205.3279927 3.88659825 202.86393738 3.8860321 C197.56292149 3.88580455 192.26192081 3.8886369 186.96090889 3.89426994 C179.29660771 3.90240898 171.63231247 3.90500263 163.96800744 3.90625793 C151.53213504 3.90844467 139.09626922 3.91509452 126.66040039 3.92456055 C114.58260125 3.93374444 102.50480389 3.94082049 90.42700195 3.94506836 C89.68209212 3.94533108 88.93718229 3.94559381 88.16969944 3.94586449 C84.43257608 3.94716956 80.6954527 3.94843326 76.95832932 3.94967639 C45.97221477 3.96003724 14.98610838 3.9777198 -16 4 C-16.33 3.34 -16.66 2.68 -17 2 C-11.26686324 0.3321784 -5.98721 -0.56334799 0 0 Z " fill="#C8E67F" transform="translate(63,11)"/>
<path d="M0 0 C0.66 1.32 1.32 2.64 2 4 C1.01 4.495 1.01 4.495 0 5 C-2.96577664 11.79657147 -6.05886716 19.64064506 -4 27 C-3.87794671 29.67540816 -3.95532687 32.31961238 -4 35 C-4.33 35 -4.66 35 -5 35 C-5.02335546 63.17238948 -5.04099221 91.34477751 -5.05181217 119.51717472 C-5.05696949 132.59796027 -5.06400148 145.6787398 -5.07543945 158.75952148 C-5.08540348 170.16009079 -5.09185754 181.56065573 -5.09408849 192.96122926 C-5.09539267 198.99828311 -5.09846007 205.03532449 -5.10573006 211.07237434 C-5.11251735 216.75463187 -5.11461142 222.4368718 -5.11310768 228.119133 C-5.11338279 230.20445539 -5.11537183 232.28977838 -5.11920547 234.37509727 C-5.124185 237.22343951 -5.12298253 240.07171542 -5.12025452 242.9200592 C-5.12316736 243.74400509 -5.1260802 244.56795098 -5.12908131 245.41686493 C-5.11710211 250.04859374 -4.76739553 254.43053216 -4 259 C-3.34 259 -2.68 259 -2 259 C-2.33 262.3 -2.66 265.6 -3 269 C-3.66 269 -4.32 269 -5 269 C-6.66349448 262.46435034 -7.29039543 256.53936111 -7.26742554 249.811203 C-7.27195665 248.8237603 -7.27648776 247.83631759 -7.28115618 246.81895238 C-7.29375412 243.53053898 -7.29218279 240.24229219 -7.29052734 236.95385742 C-7.29651542 234.58779183 -7.30332161 232.2217282 -7.31088257 229.85566711 C-7.32852025 223.44236524 -7.33323699 217.02911677 -7.33451414 210.61579299 C-7.33550449 206.60563143 -7.34008291 202.59547915 -7.34550858 198.58532143 C-7.36310552 185.30759402 -7.37234975 172.02989883 -7.37084763 158.75215968 C-7.37076772 158.03754806 -7.3706878 157.32293644 -7.37060547 156.58666992 C-7.37052371 155.87117839 -7.37044195 155.15568685 -7.37035771 154.41851375 C-7.36954501 142.82618839 -7.38868263 131.23399301 -7.4168822 119.64170524 C-7.44565874 107.71746227 -7.45941991 95.79328262 -7.45769465 83.86900407 C-7.45703244 77.1829697 -7.46284327 70.49709209 -7.48405075 63.81108665 C-7.50345791 57.52123246 -7.50354033 51.23166558 -7.48901749 44.94180107 C-7.48693147 42.63926014 -7.49161782 40.33670111 -7.5037384 38.03419113 C-7.61355782 15.71909863 -7.61355782 15.71909863 -3 6 C-2.69415167 5.32928058 -2.38830334 4.65856115 -2.07318687 3.9675169 C-1.42825383 2.62191309 -0.72466457 1.30439622 0 0 Z " fill="#BFE789" transform="translate(17,36)"/>
<path d="M0 0 C14.85048622 0.87355801 28.70833625 8.7706857 38.84765625 19.38671875 C42.80003148 24.18551917 46.25934407 29.41451116 49 35 C48.505 35.99 48.505 35.99 48 37 C47.4225 36.62875 46.845 36.2575 46.25 35.875 C44 34.70833333 44 34.70833333 41.75 35.875 C41.1725 36.24625 40.595 36.6175 40 37 C39.731875 36.195625 39.46375 35.39125 39.1875 34.5625 C38.5996875 33.2940625 38.5996875 33.2940625 38 32 C37.01 31.67 36.02 31.34 35 31 C35 30.01 35 29.02 35 28 C34.34 28 33.68 28 33 28 C33 26.68 33 25.36 33 24 C32.38125 23.79375 31.7625 23.5875 31.125 23.375 C28.08519345 21.40806635 27.81420617 19.46037622 27 16 C26.875 13.125 26.875 13.125 27 11 C24.525 10.505 24.525 10.505 22 10 C22 9.34 22 8.68 22 8 C21.38125 8.185625 20.7625 8.37125 20.125 8.5625 C18 9 18 9 16 8 C16 7.34 16 6.68 16 6 C14.35 6.33 12.7 6.66 11 7 C11 8.32 11 9.64 11 11 C8.03 10.67 5.06 10.34 2 10 C4 6 4 6 6 4 C7.32 4 8.64 4 10 4 C6.7 3.34 3.4 2.68 0 2 C0 1.34 0 0.68 0 0 Z " fill="#225635" transform="translate(296,1)"/>
<path d="M0 0 C120.285 0.495 120.285 0.495 243 1 C243 1.33 243 1.66 243 2 C241.79054875 2.00238835 240.58109751 2.00477671 239.33499622 2.00723743 C210.58549614 2.06467327 181.83606205 2.1374576 153.08665122 2.22898628 C149.54336354 2.24025362 146.00007545 2.2513922 142.45678711 2.26245117 C141.75142144 2.26465486 141.04605578 2.26685854 140.3193154 2.269129 C128.91792323 2.30444231 117.51653113 2.32934005 106.11510465 2.35034702 C94.40467981 2.37215673 82.69432555 2.40525593 70.98396081 2.44870156 C64.41127021 2.47260149 57.83865749 2.4913515 51.26592445 2.49761391 C45.07303927 2.50367926 38.88035328 2.5237319 32.68754196 2.55427551 C30.42092334 2.56303243 28.15427866 2.56678321 25.88764381 2.56500816 C9.23125795 2.55435853 9.23125795 2.55435853 -7 6 C-7.33 5.34 -7.66 4.68 -8 4 C-5.09399739 2.74335022 -3.20395416 2 0 2 C0 1.34 0 0.68 0 0 Z " fill="#2E5715" transform="translate(48,9)"/>
<path d="M0 0 C0.33 0 0.66 0 1 0 C1.04558742 32.45144426 1.08099981 64.90287932 1.10213066 97.35434826 C1.10463219 101.18219577 1.10722082 105.01004321 1.10986328 108.83789062 C1.1103879 109.59997277 1.11091252 110.36205492 1.11145304 111.14723046 C1.12016478 123.50018798 1.13593897 135.85312695 1.15430559 148.20607345 C1.17298328 160.87352096 1.1841122 173.54095873 1.18817699 186.20841944 C1.19092649 194.0301373 1.19962245 201.85180275 1.21583293 209.67350449 C1.22761638 215.66281934 1.22891676 221.65208875 1.22621536 227.64141655 C1.22676803 230.10456732 1.23077843 232.56771998 1.23841095 235.03085899 C1.24828517 238.38021559 1.24599654 241.72934352 1.24050903 245.07870483 C1.24633472 246.06507097 1.2521604 247.0514371 1.25816262 248.06769311 C1.25418052 248.95994108 1.25019842 249.85218905 1.24609566 250.77147484 C1.24723482 251.93227989 1.24723482 251.93227989 1.24839699 253.11653554 C1 255 1 255 -1 257 C-1.7507849 254.7476453 -2.0722288 253.31402593 -1.53443909 250.9759016 C-0.76152713 246.67211849 -0.86980684 242.43708708 -0.88647461 238.07307434 C-0.88625132 236.56195203 -0.88625132 236.56195203 -0.88602352 235.020302 C-0.88671863 231.64087348 -0.89456366 228.26149916 -0.90234375 224.88208008 C-0.90426262 222.46097341 -0.90572656 220.03986635 -0.9067688 217.61875916 C-0.90993146 212.40392741 -0.91608984 207.1891082 -0.92483521 201.97428322 C-0.93739052 194.43236517 -0.94346613 186.89045238 -0.94776857 179.34852561 C-0.95483367 167.10905522 -0.96563499 154.86959145 -0.97949219 142.63012695 C-0.98032 141.89778785 -0.98114781 141.16544874 -0.98200071 140.41091754 C-0.98790231 135.21144491 -0.99393694 130.01197244 -1 124.8125 C-1.00693007 118.86792003 -1.01379659 112.92333999 -1.02050781 106.97875977 C-1.02133594 106.24640328 -1.02216407 105.51404679 -1.02301729 104.75949768 C-1.03668831 92.5619778 -1.04645488 80.3644578 -1.05341816 68.16693228 C-1.05790582 60.6404743 -1.06595915 53.11403587 -1.07856297 45.58758702 C-1.08796018 39.82822643 -1.09232832 34.06887087 -1.0948143 28.30950356 C-1.09669425 25.94149066 -1.10031078 23.57347844 -1.10574722 21.20547104 C-1.1129095 17.98562289 -1.11400339 14.76582943 -1.11352539 11.54597473 C-1.11891783 10.12406923 -1.11891783 10.12406923 -1.12441921 8.67343837 C-1.12304486 7.81562446 -1.12167051 6.95781054 -1.12025452 6.07400227 C-1.12117631 5.33018246 -1.1220981 4.58636265 -1.12304783 3.82000285 C-1 2 -1 2 0 0 Z " fill="#2D591B" transform="translate(340,48)"/>
<path d="M0 0 C0.33 0 0.66 0 1 0 C2.29283945 5.73697507 3.37619454 11.10628548 3 17 C2.67 17.33 2.34 17.66 2 18 C1.88977674 20.65510466 1.8450346 23.28475649 1.84178162 25.94081116 C1.83684364 26.78287737 1.83190566 27.62494358 1.82681805 28.49252695 C1.81136427 31.33624308 1.80306123 34.1799365 1.79467773 37.02368164 C1.78510539 39.05336205 1.7750957 41.08304043 1.76467896 43.11271667 C1.73755402 48.64139389 1.71658568 54.1700797 1.69667697 59.69878697 C1.67486405 65.46973455 1.64745248 71.24065539 1.62062073 77.01158142 C1.57063016 87.94798422 1.52571502 98.8844018 1.48259836 109.82083362 C1.43328026 122.26803789 1.37834207 134.71521534 1.32291877 147.16239369 C1.20900106 172.77490412 1.10218345 198.38744026 1 224 C0.67 224 0.34 224 0 224 C0 150.08 0 76.16 0 0 Z " fill="#C6EB7D" transform="translate(11,64)"/>
<path d="M0 0 C0.33 0 0.66 0 1 0 C4.84910425 9.11871126 4.32305378 18.32911727 4 28 C3.9685791 29.03350586 3.9371582 30.06701172 3.90478516 31.13183594 C3.80103362 34.42168517 3.68528601 37.71080829 3.5625 41 C3.52350586 42.05719238 3.48451172 43.11438477 3.44433594 44.20361328 C3.40211914 45.1882959 3.35990234 46.17297852 3.31640625 47.1875 C3.27974854 48.06792969 3.24309082 48.94835937 3.20532227 49.85546875 C3 52 3 52 2 54 C1.92642113 56.00005755 1.91649357 58.00260598 1.9375 60.00390625 C1.94523438 61.22013672 1.95296875 62.43636719 1.9609375 63.68945312 C1.98670341 66.24414342 2.01273911 68.79883101 2.0390625 71.35351562 C2.08089318 77.98019184 2.11756495 84.45526025 1 91 C0.01 91.495 0.01 91.495 -1 92 C-1.18500666 61.32304993 -0.64888982 30.66943313 0 0 Z " fill="#B2D683" transform="translate(199,101)"/>
<path d="M0 0 C0.33 0 0.66 0 1 0 C2.3410142 14.41590265 -6.30927056 28.05465692 -14.97265625 38.80859375 C-17.14225287 41.15376466 -19.46041117 43.06779984 -22 45 C-22.66 44.01 -23.32 43.02 -24 42 C-23.34 42 -22.68 42 -22 42 C-22 41.01 -22 40.02 -22 39 C-21.236875 38.54625 -20.47375 38.0925 -19.6875 37.625 C-16.58459345 35.74882394 -15.44909902 34.30072554 -14 31 C-14.0557408 28.77084833 -14.0557408 28.77084833 -15 27 C-15.66 26.67 -16.32 26.34 -17 26 C-17 25.34 -17 24.68 -17 24 C-16.0409375 23.319375 -16.0409375 23.319375 -15.0625 22.625 C-12.82527047 21.2064056 -12.82527047 21.2064056 -12.5 18.9375 C-12.335 18.298125 -12.17 17.65875 -12 17 C-10.0625 15.875 -10.0625 15.875 -8 15 C-7.34 14.34 -6.68 13.68 -6 13 C-5.67 13.66 -5.34 14.32 -5 15 C-3.33631662 12.00536992 -2.63810492 9.35005083 -2 6 C-1.35610218 3.99255385 -0.69437747 1.99054876 0 0 Z M-7 16 C-6 18 -6 18 -6 18 Z " fill="#234F33" transform="translate(349,293)"/>
<path d="M0 0 C3 1 3 1 5 3 C5.639375 3.144375 6.27875 3.28875 6.9375 3.4375 C9.43337987 4.11819451 10.43230724 4.96199942 12 7 C12 7.99 12 8.98 12 10 C12.63808594 10.20496094 13.27617187 10.40992188 13.93359375 10.62109375 C14.75988281 10.89050781 15.58617187 11.15992188 16.4375 11.4375 C17.26121094 11.70433594 18.08492187 11.97117187 18.93359375 12.24609375 C21 13 21 13 22 14 C22.66 13.67 23.32 13.34 24 13 C24.66 13.66 25.32 14.32 26 15 C28.0217996 15 30.04447908 14.9360523 32.0625 14.8125 C33.031875 14.874375 34.00125 14.93625 35 15 C35.66 15.99 36.32 16.98 37 18 C36.34 18 35.68 18 35 18 C34.505 19.485 34.505 19.485 34 21 C35.65 21.33 37.3 21.66 39 22 C39 22.66 39 23.32 39 24 C25.32383081 24 13.77247843 15.58955708 4.2578125 6.515625 C2.32169629 4.35842977 1.08134949 2.65987116 0 0 Z M19 10 C19.66 10.66 20.32 11.32 21 12 C20.34 12 19.68 12 19 12 C19 11.34 19 10.68 19 10 Z " fill="#214E33" transform="translate(12,326)"/>
<path d="M0 0 C16.5 0 33 0 50 0 C50 10.89 50 21.78 50 33 C49.67 33 49.34 33 49 33 C48.67 22.77 48.34 12.54 48 2 C26.22 1.505 26.22 1.505 4 1 C3.14600727 7.62410155 3.14600727 7.62410155 2.90234375 14.15625 C2.90556641 15.0328125 2.90878906 15.909375 2.91210938 16.8125 C2.92048828 17.699375 2.92886719 18.58625 2.9375 19.5 C2.94201172 20.4178125 2.94652344 21.335625 2.95117188 22.28125 C2.96283674 24.52090391 2.97920386 26.76041545 3 29 C5.475 29.99 5.475 29.99 8 31 C4.98968256 31.93423645 4.13349732 32.04449911 1 31 C0.67 31.66 0.34 32.32 0 33 C0 22.11 0 11.22 0 0 Z " fill="#3E692E" transform="translate(150,205)"/>
<path d="M0 0 C14.52 0 29.04 0 44 0 C43.01 0.33 42.02 0.66 41 1 C41 1.66 41 2.32 41 3 C37.7 3 34.4 3 31 3 C31 3.66 31 4.32 31 5 C26.77119589 5.14541967 22.54303587 5.23411527 18.3125 5.3125 C17.11431641 5.35439453 15.91613281 5.39628906 14.68164062 5.43945312 C13.52470703 5.45556641 12.36777344 5.47167969 11.17578125 5.48828125 C10.11270752 5.51446533 9.04963379 5.54064941 7.9543457 5.56762695 C5 5 5 5 0 0 Z " fill="#A8C179" transform="translate(153,196)"/>
<path d="M0 0 C1.65 0.33 3.3 0.66 5 1 C5.69430333 5.58240198 4.01438722 7.95488235 1.484375 11.546875 C-0.28176826 13.2758363 -1.59157615 13.60888843 -4 14 C-4.33 15.98 -4.66 17.96 -5 20 C-5.66 20 -6.32 20 -7 20 C-8.37482707 18.36739286 -9.70647667 16.69774938 -11 15 C-11.66 14.34 -12.32 13.68 -13 13 C-12.48050781 12.56429688 -11.96101563 12.12859375 -11.42578125 11.6796875 C-7.16777334 8.04345894 -3.44527348 4.41425664 0 0 Z " fill="#235939" transform="translate(331,318)"/>
<path d="M0 0 C4.13968311 0.64803035 8.12453035 0.65807374 12.30615234 0.63110352 C13.55859238 0.62898109 13.55859238 0.62898109 14.83633423 0.6268158 C17.48516527 0.62124901 20.13390965 0.60870273 22.78271484 0.59594727 C24.58609903 0.59092797 26.38948456 0.58636582 28.19287109 0.58227539 C32.59785205 0.57129047 37.00276879 0.5540489 41.40771484 0.53344727 C41.40771484 1.19344727 41.40771484 1.85344727 41.40771484 2.53344727 C42.39771484 2.86344727 43.38771484 3.19344727 44.40771484 3.53344727 C46.6884166 9.691342 46.6884166 9.691342 45.40771484 13.53344727 C44.74771484 13.53344727 44.08771484 13.53344727 43.40771484 13.53344727 C43.07771484 10.23344727 42.74771484 6.93344727 42.40771484 3.53344727 C40.287771 3.54130249 40.287771 3.54130249 38.125 3.54931641 C32.89567698 3.5673777 27.66635673 3.57888344 22.43701172 3.58837891 C20.17105649 3.59341653 17.90510452 3.60024679 15.63916016 3.60888672 C12.38752437 3.62097723 9.13593145 3.62668119 5.88427734 3.63110352 C4.35765976 3.63884544 4.35765976 3.63884544 2.80020142 3.64674377 C1.388965 3.64685707 1.388965 3.64685707 -0.05078125 3.64697266 C-1.29654434 3.65030357 -1.29654434 3.65030357 -2.56747437 3.65370178 C-4.59228516 3.53344727 -4.59228516 3.53344727 -6.59228516 2.53344727 C-6.59228516 1.87344727 -6.59228516 1.21344727 -6.59228516 0.53344727 C-4.10895325 -0.32616763 -2.6153253 -0.47069944 0 0 Z " fill="#C4E685" transform="translate(156.59228515625,92.466552734375)"/>
<path d="M0 0 C15.51 0 31.02 0 47 0 C47.495 0.99 47.495 0.99 48 2 C42.74066845 2.87359124 37.68944883 3.14698637 32.36328125 3.1328125 C31.56141891 3.13376923 30.75955658 3.13472595 29.93339539 3.13571167 C28.25011109 3.13638822 26.56682411 3.13457081 24.88354492 3.13037109 C22.30967374 3.1249941 19.73597535 3.13034476 17.16210938 3.13671875 C15.52083295 3.13605829 13.87955663 3.13477779 12.23828125 3.1328125 C11.47155594 3.13483673 10.70483063 3.13686096 9.91487122 3.13894653 C6.47507158 3.12384244 3.28690801 3.08825131 0 2 C0 1.34 0 0.68 0 0 Z " fill="#A0BD7B" transform="translate(152,238)"/>
<path d="M0 0 C-2.97 1.32 -5.94 2.64 -9 4 C-4.78370866 6.10814567 -2.60209225 6.17700355 2 6 C-1 8 -1 8 -3.125 9 C-5.17044538 9.85860158 -5.17044538 9.85860158 -6 12 C-7.65 12 -9.3 12 -11 12 C-11 11.01 -11 10.02 -11 9 C-15.24410232 8.51174044 -19.10537819 8.59443935 -22.65136719 11.22509766 C-26.36888208 14.56439582 -29.70632953 18.24793209 -33 22 C-33 17.39790459 -30.11396571 15.49965459 -26.98242188 12.34814453 C-20.62032312 6.28088453 -8.89504849 -2.22376212 0 0 Z " fill="#214D2F" transform="translate(46,4)"/>
<path d="M0 0 C0.33 0 0.66 0 1 0 C1 10.89 1 21.78 1 33 C1.66 33 2.32 33 3 33 C3 33.66 3 34.32 3 35 C-1.875 34.125 -1.875 34.125 -3 33 C-3.25419185 28.5475841 -3.18522973 24.08380869 -3.1875 19.625 C-3.19974609 18.366875 -3.21199219 17.10875 -3.22460938 15.8125 C-3.22654297 14.60851562 -3.22847656 13.40453125 -3.23046875 12.1640625 C-3.23457764 11.05498535 -3.23868652 9.9459082 -3.24291992 8.80322266 C-3 6 -3 6 -1 3 C-0.67 2.01 -0.34 1.02 0 0 Z " fill="#C0DD72" transform="translate(149,205)"/>
<path d="M0 0 C0.33 0 0.66 0 1 0 C1.02547169 6.9559653 1.04291782 13.91191846 1.05493164 20.86791992 C1.05994306 23.23153127 1.06675396 25.59513954 1.07543945 27.95874023 C1.08764526 31.36703248 1.09326037 34.77528354 1.09765625 38.18359375 C1.10281754 39.23083115 1.10797882 40.27806854 1.11329651 41.35704041 C1.11374699 47.3233587 0.77689678 53.08321863 0 59 C-0.33 59 -0.66 59 -1 59 C-2.23714347 47.23528167 -2.11414025 35.50142584 -2.0625 23.6875 C-2.05747354 21.67513133 -2.05291266 19.66276143 -2.04882812 17.65039062 C-2.03791664 12.76689646 -2.02071559 7.88346201 -2 3 C-1.34 3 -0.68 3 0 3 C0 2.01 0 1.02 0 0 Z " fill="#B9D884" transform="translate(150,98)"/>
<path d="M0 0 C0.33 0 0.66 0 1 0 C1 4.62 1 9.24 1 14 C-13.52 14 -28.04 14 -43 14 C-43 10.37 -43 6.74 -43 3 C-42.67 3 -42.34 3 -42 3 C-41.87625 4.134375 -41.7525 5.26875 -41.625 6.4375 C-41.41875 7.613125 -41.2125 8.78875 -41 10 C-37.67301363 11.66349319 -33.93570615 11.24378057 -30.2734375 11.31640625 C-29.41062164 11.33718735 -28.54780579 11.35796844 -27.65884399 11.37937927 C-24.89764507 11.44486034 -22.13634962 11.50375298 -19.375 11.5625 C-17.50519828 11.6056866 -15.63540638 11.64930093 -13.765625 11.69335938 C-9.17718272 11.80054024 -4.58864317 11.90181175 0 12 C0 8.04 0 4.08 0 0 Z " fill="#295622" transform="translate(196,182)"/>
<path d="M0 0 C11.76248046 0.69191062 22.69006783 5.94648269 32 13 C32.495 13.99 32.495 13.99 33 15 C31.35 15.66 29.7 16.32 28 17 C27 16 27 16 26.9375 13.4375 C26.958125 12.633125 26.97875 11.82875 27 11 C24.525 10.505 24.525 10.505 22 10 C22 9.34 22 8.68 22 8 C21.38125 8.185625 20.7625 8.37125 20.125 8.5625 C18 9 18 9 16 8 C16 7.34 16 6.68 16 6 C14.35 6.33 12.7 6.66 11 7 C11 8.32 11 9.64 11 11 C8.03 10.67 5.06 10.34 2 10 C4 6 4 6 6 4 C7.32 4 8.64 4 10 4 C6.7 3.34 3.4 2.68 0 2 C0 1.34 0 0.68 0 0 Z " fill="#1D412A" transform="translate(296,1)"/>
<path d="M0 0 C0.66 0.33 1.32 0.66 2 1 C2 18.49 2 35.98 2 54 C1.01 53.67 0.02 53.34 -1 53 C-1.09408682 45.62986585 -1.08709904 38.3511415 -0.5 31 C0.28188667 20.68129847 0.08760589 10.34153842 0 0 Z " fill="#C5DE77" transform="translate(147,104)"/>
<path d="M0 0 C3.38050357 4.50733809 3.39649508 6.92826346 3.25 12.25 C3.23759277 13.0639624 3.22518555 13.8779248 3.21240234 14.71655273 C3.16120237 17.47850688 3.08195677 20.23879362 3 23 C2.97389648 24.05783691 2.94779297 25.11567383 2.92089844 26.20556641 C2.83664772 29.49182862 2.73461568 32.7769922 2.625 36.0625 C2.59438477 37.1153418 2.56376953 38.16818359 2.53222656 39.25292969 C2.49323242 40.23293945 2.45423828 41.21294922 2.4140625 42.22265625 C2.36693115 43.53375366 2.36693115 43.53375366 2.31884766 44.87133789 C2 47 2 47 0 49 C0 32.83 0 16.66 0 0 Z " fill="#BEDA7A" transform="translate(200,106)"/>
<path d="M0 0 C0.99 0 1.98 0 3 0 C3.13535156 0.71542969 3.27070313 1.43085938 3.41015625 2.16796875 C6.08421762 14.54551028 11.34116439 24.69591016 21 33 C20.34 33.66 19.68 34.32 19 35 C19 34.34 19 33.68 19 33 C18.443125 32.773125 17.88625 32.54625 17.3125 32.3125 C13.28030943 30.02395941 10.54941401 26.82412102 8 23 C7.01 23 6.02 23 5 23 C5.66 22.01 6.32 21.02 7 20 C6.34 19.34 5.68 18.68 5 18 C4.875 15.375 4.875 15.375 5 13 C4.01 13.33 3.02 13.66 2 14 C-0.29612756 4.58997722 -0.29612756 4.58997722 0 0 Z " fill="#2E5F29" transform="translate(8,296)"/>
<path d="M0 0 C0.66 0.66 1.32 1.32 2 2 C1.67 2.99 1.34 3.98 1 5 C1.66 5 2.32 5 3 5 C2.67 6.65 2.34 8.3 2 10 C1.01 10.33 0.02 10.66 -1 11 C-1.66 10.67 -2.32 10.34 -3 10 C-3 9.34 -3 8.68 -3 8 C-4.0828125 8.495 -4.0828125 8.495 -5.1875 9 C-8.01697427 10.00603529 -10.02895466 10.16977402 -13 10 C-13 8.68 -13 7.36 -13 6 C-12.39671875 5.73445313 -11.7934375 5.46890625 -11.171875 5.1953125 C-10.37265625 4.84210938 -9.5734375 4.48890625 -8.75 4.125 C-7.96109375 3.77695312 -7.1721875 3.42890625 -6.359375 3.0703125 C-4.21131392 2.09586095 -2.10170798 1.07013571 0 0 Z " fill="#24593A" transform="translate(317,332)"/>
<path d="M0 0 C2.3125 0.125 2.3125 0.125 5 1 C8.25199698 5.93565499 8.40811205 10.06035275 8.25 15.75 C8.23831787 16.5440625 8.22663574 17.338125 8.21459961 18.15625 C7.92201946 33.15596108 7.92201946 33.15596108 6 37 C5.34 36.67 4.68 36.34 4 36 C4.33 25.11 4.66 14.22 5 3 C3.35 2.67 1.7 2.34 0 2 C0 1.34 0 0.68 0 0 Z " fill="#BADB80" transform="translate(195,202)"/>
<path d="M0 0 C0.66 0 1.32 0 2 0 C3.02642423 5.85061814 2.66348197 9.23326249 1 15 C1.72510734 17.20072961 1.72510734 17.20072961 3 19 C3.36784131 20.3242287 3.71202981 21.65613912 4 23 C0.3190817 19.80826692 -1.49092636 16.30338706 -3.3125 11.875 C-3.58900391 11.24207031 -3.86550781 10.60914063 -4.15039062 9.95703125 C-4.83531575 8.33184368 -5.42539814 6.66739011 -6 5 C-5.67 4.34 -5.34 3.68 -5 3 C-4.34 3.66 -3.68 4.32 -3 5 C-2.5359375 4.0409375 -2.5359375 4.0409375 -2.0625 3.0625 C-1 1 -1 1 0 0 Z " fill="#1C492D" transform="translate(8,303)"/>
<path d="M0 0 C0.99 0.33 1.98 0.66 3 1 C3 1.66 3 2.32 3 3 C3.99 3.33 4.98 3.66 6 4 C6 4.66 6 5.32 6 6 C6.66 6.33 7.32 6.66 8 7 C6.58531689 7.96125903 5.1681636 8.91888325 3.75 9.875 C2.56664062 10.67550781 2.56664062 10.67550781 1.359375 11.4921875 C-2.74333925 14.11412078 -2.74333925 14.11412078 -5 15 C-5.99 14.67 -6.98 14.34 -8 14 C-8 13.34 -8 12.68 -8 12 C-3.5 10.5 -3.5 10.5 1 9 C1.73323796 6.98491642 1.73323796 6.98491642 2 5 C0.35 5.33 -1.3 5.66 -3 6 C-2.34 5.67 -1.68 5.34 -1 5 C-0.34444881 2.47266765 -0.34444881 2.47266765 0 0 Z M-6 6 C-3 7 -3 7 -3 7 Z " fill="#1F552D" transform="translate(318,332)"/>
<path d="M0 0 C1.33224462 3.99673385 1.13442113 7.83294503 1 12 C0.67 12.66 0.34 13.32 0 14 C-0.35169068 15.32860925 -0.68770276 16.66158328 -1 18 C-1.66 18 -2.32 18 -3 18 C-3.66 19.98 -4.32 21.96 -5 24 C-5.33 24 -5.66 24 -6 24 C-6.76641722 15.76101485 -3.89646649 7.2137285 0 0 Z " fill="#264B30" transform="translate(6,34)"/>
<path d="M0 0 C3.67420866 0.30618405 4.78135513 0.75771784 7.3125 3.5625 C8.1478125 4.7690625 8.1478125 4.7690625 9 6 C9.66 5.67 10.32 5.34 11 5 C11.20625 5.61875 11.4125 6.2375 11.625 6.875 C12.8861233 9.3090939 12.8861233 9.3090939 16 10 C19 11 19 11 20.375 13.125 C20.58125 13.74375 20.7875 14.3625 21 15 C14.54496583 14.8344863 10.57561407 11.15149298 6 7 C3.86370342 4.74137969 1.93891862 2.43607724 0 0 Z " fill="#BBE080" transform="translate(21,321)"/>
<path d="M0 0 C12.21 0 24.42 0 37 0 C36.01 0.33 35.02 0.66 34 1 C34 1.66 34 2.32 34 3 C28.39 3 22.78 3 17 3 C17 2.34 17 1.68 17 1 C11.39 1 5.78 1 0 1 C0 0.67 0 0.34 0 0 Z " fill="#9BBE7E" transform="translate(160,196)"/>
<path d="M0 0 C4.81196373 1.87037459 9.84258386 3.91546544 14 7 C14 7.99 14 8.98 14 10 C11.5625 9.625 11.5625 9.625 9 9 C8.67 8.34 8.34 7.68 8 7 C2.12749662 3.58327076 -3.31174285 2.04161382 -10 1 C-6.13180703 -1.12791852 -4.34394877 -1.14745817 0 0 Z " fill="#BEE181" transform="translate(304,13)"/>
<path d="M0 0 C1.5778125 0.495 1.5778125 0.495 3.1875 1 C6.38873357 1.83966782 8.7411008 2.19750904 12 2 C12.45375 2.969375 12.9075 3.93875 13.375 4.9375 C14.65786221 8.07079582 14.65786221 8.07079582 17 9 C17 10.32 17 11.64 17 13 C17.66 13 18.32 13 19 13 C19.33 13.99 19.66 14.98 20 16 C19.34 16.33 18.68 16.66 18 17 C17.5875 16.49210937 17.175 15.98421875 16.75 15.4609375 C13.10498296 11.11620737 9.44970755 7.57189587 4.796875 4.32421875 C3.01657533 3.0122153 1.52112481 1.60093691 0 0 Z " fill="#305E26" transform="translate(312,16)"/>
<path d="M0 0 C0.66 1.32 1.32 2.64 2 4 C1.01 4.495 1.01 4.495 0 5 C-2.96577664 11.79657147 -6.05886716 19.64064506 -4 27 C-3.87794671 29.67540816 -3.95532687 32.31961238 -4 35 C-4.33 35 -4.66 35 -5 35 C-8.37674467 21.97541341 -6.55706057 11.80270903 0 0 Z " fill="#B7DC7E" transform="translate(17,36)"/>
<path d="M0 0 C4.69089768 7.03634651 6.1156839 15.65410488 5 24 C4.34 24.66 3.68 25.32 3 26 C0.65987018 17.41952398 0.38566164 8.83977082 0 0 Z " fill="#204725" transform="translate(345,38)"/>
<path d="M0 0 C0.33 0 0.66 0 1 0 C1 10.89 1 21.78 1 33 C1.66 33 2.32 33 3 33 C3 33.66 3 34.32 3 35 C1.68 35 0.36 35 -1 35 C-1.02472359 30.49764405 -1.04287119 25.99532764 -1.05493164 21.49291992 C-1.0599596 19.9613374 -1.06678284 18.42975967 -1.07543945 16.89819336 C-1.08757229 14.69643978 -1.09324367 12.49474967 -1.09765625 10.29296875 C-1.10281754 9.60849167 -1.10797882 8.92401459 -1.11329651 8.21879578 C-1.1136536 5.19093758 -0.96616619 2.89849858 0 0 Z " fill="#B6DA83" transform="translate(149,205)"/>
<path d="M0 0 C0 0.99 0 1.98 0 3 C1.32 3.66 2.64 4.32 4 5 C3.01 6.485 3.01 6.485 2 8 C1.29187186 10.32108669 0.61975848 12.65377147 0 15 C-1.20628008 12.66785852 -2.1654738 10.50357861 -3 8 C-3.33 7.34 -3.66 6.68 -4 6 C-2.68 4.02 -1.36 2.04 0 0 Z M3 0 C3.66 0 4.32 0 5 0 C4.67 0.99 4.34 1.98 4 3 C3.67 2.01 3.34 1.02 3 0 Z " fill="#204A32" transform="translate(11,26)"/>
<path d="M0 0 C3 1 3 1 5 3 C5.639375 3.144375 6.27875 3.28875 6.9375 3.4375 C9.48989459 4.13360761 10.46361513 4.84906118 12 7 C12.1875 9.6875 12.1875 9.6875 12 12 C8.60140297 10.53033642 6.35036291 8.61962486 3.75 6 C3.04359375 5.29875 2.3371875 4.5975 1.609375 3.875 C0 2 0 2 0 0 Z " fill="#1E402B" transform="translate(12,326)"/>
<path d="M0 0 C18.24785212 2.10466024 18.24785212 2.10466024 25 4 C25.33 4.66 25.66 5.32 26 6 C21.64030062 7.26989388 18.94493737 6.63043985 14.6875 5.1875 C9.81413811 3.58704365 4.99129792 2.17442304 0 1 C0 0.67 0 0.34 0 0 Z " fill="#35622B" transform="translate(288,9)"/>
<path d="M0 0 C0.66 0.66 1.32 1.32 2 2 C-1.01587004 5.47985004 -3.49480674 6.98863008 -8 8 C-10.875 7.625 -10.875 7.625 -13 7 C-10.31767339 5.21178226 -7.69711039 3.79857396 -4.8125 2.375 C-3.91144531 1.92898438 -3.01039063 1.48296875 -2.08203125 1.0234375 C-1.39496094 0.68570312 -0.70789063 0.34796875 0 0 Z " fill="#305F2B" transform="translate(317,332)"/>
<path d="M0 0 C3.3 0.33 6.6 0.66 10 1 C6.28340297 2.85829851 3.27474722 3.73955561 -0.75 4.625 C-1.92046875 4.88539062 -3.0909375 5.14578125 -4.296875 5.4140625 C-5.18890625 5.60742188 -6.0809375 5.80078125 -7 6 C-7.33 5.34 -7.66 4.68 -8 4 C-5.09399739 2.74335022 -3.20395416 2 0 2 C0 1.34 0 0.68 0 0 Z " fill="#335E22" transform="translate(48,9)"/>
<path d="M0 0 C0.66 0.33 1.32 0.66 2 1 C2 1.99 2 2.98 2 4 C0.96746094 4.21398437 -0.06507812 4.42796875 -1.12890625 4.6484375 C-5.5025141 5.89803974 -7.92080602 8.33709563 -10.9375 11.625 C-11.43056641 12.140625 -11.92363281 12.65625 -12.43164062 13.1875 C-13.63295314 14.44712865 -14.81820737 15.7220398 -16 17 C-16 14 -16 14 -13.76953125 11.40625 C-12.79161604 10.42966528 -11.80555504 9.4611855 -10.8125 8.5 C-10.32974609 8.01402344 -9.84699219 7.52804688 -9.34960938 7.02734375 C-6.46542631 4.18574594 -3.65733114 1.76865754 0 0 Z " fill="#17301F" transform="translate(29,9)"/>
<path d="M0 0 C1.32 0 2.64 0 4 0 C5.8125 1.8125 5.8125 1.8125 7 4 C6.67 4.99 6.34 5.98 6 7 C4.35 7.33 2.7 7.66 1 8 C-1 5 -1 5 -0.625 2.3125 C-0.41875 1.549375 -0.2125 0.78625 0 0 Z " fill="#26563D" transform="translate(325,16)"/>
<path d="M0 0 C2.55263088 2.274694 3.84144815 4.43202693 5.1875 7.5625 C5.53167969 8.34753906 5.87585938 9.13257813 6.23046875 9.94140625 C7 12 7 12 7 14 C5.68 13.67 4.36 13.34 3 13 C0.875 6.25 0.875 6.25 2 4 C1.34 4 0.68 4 0 4 C0 2.68 0 1.36 0 0 Z " fill="#B7DC7D" transform="translate(331,34)"/>
<path d="M0 0 C2 3 2 3 1.609375 5.62890625 C1.32578125 6.59699219 1.0421875 7.56507813 0.75 8.5625 C0.34007812 10.01849609 0.34007812 10.01849609 -0.078125 11.50390625 C-1 14 -1 14 -3 16 C-3.625 14.1875 -3.625 14.1875 -4 12 C-3.34 11.01 -2.68 10.02 -2 9 C-1.33386665 6.72461677 -1.33386665 6.72461677 -0.875 4.3125 C-0.70742188 3.50425781 -0.53984375 2.69601562 -0.3671875 1.86328125 C-0.24601562 1.24839844 -0.12484375 0.63351562 0 0 Z " fill="#C1E084" transform="translate(337,296)"/>
<path d="M0 0 C0.36717663 7.4659249 0.36717663 7.4659249 -1.375 10 C-3 11 -3 11 -5 11 C-5.33 10.01 -5.66 9.02 -6 8 C-5.34 7.34 -4.68 6.68 -4 6 C-4 5.01 -4 4.02 -4 3 C-1.44444444 0 -1.44444444 0 0 0 Z " fill="#1C5833" transform="translate(18,25)"/>
<path d="M0 0 C0.33 0 0.66 0 1 0 C1.42765417 6.41481258 -0.14256832 11.88595404 -2 18 C-3.0625 16.1875 -3.0625 16.1875 -4 14 C-3.67 13.01 -3.34 12.02 -3 11 C-2.855625 10.236875 -2.71125 9.47375 -2.5625 8.6875 C-1.93620868 5.69521926 -1.00615213 2.88430277 0 0 Z " fill="#1C3E24" transform="translate(349,293)"/>
<path d="M0 0 C0.33 0 0.66 0 1 0 C1.144375 1.11375 1.28875 2.2275 1.4375 3.375 C1.78372035 6.82142047 1.78372035 6.82142047 3 9 C2.5625 11.125 2.5625 11.125 2 13 C0.68 12.67 -0.64 12.34 -2 12 C-1.67 11.01 -1.34 10.02 -1 9 C-0.95721917 7.62566569 -0.95942727 6.24940127 -1 4.875 C-1 1 -1 1 0 0 Z " fill="#C0D876" transform="translate(150,188)"/>
<path d="M0 0 C2 1 2 1 2.625 2.5625 C3.16368951 6.06398181 3.05903219 9.45806833 3 13 C2.01 13.495 2.01 13.495 1 14 C-0.04976964 10.85069107 -0.10131595 8.61185544 -0.0625 5.3125 C-0.05347656 4.31863281 -0.04445313 3.32476562 -0.03515625 2.30078125 C-0.02355469 1.54152344 -0.01195312 0.78226563 0 0 Z " fill="#2A543E" transform="translate(343,37)"/>
<path d="M0 0 C-0.625 2.375 -0.625 2.375 -2 5 C-5.125 6.3125 -5.125 6.3125 -8 7 C-8.66 6.01 -9.32 5.02 -10 4 C-8.71086513 3.32845067 -7.41859796 2.66291141 -6.125 2 C-5.40570313 1.62875 -4.68640625 1.2575 -3.9453125 0.875 C-2 0 -2 0 0 0 Z " fill="#BDE282" transform="translate(45,14)"/>
<path d="M0 0 C1.67542976 0.28604898 3.34385343 0.61781233 5 1 C4.67 2.32 4.34 3.64 4 5 C1.36 5.33 -1.28 5.66 -4 6 C-1.125 1.125 -1.125 1.125 0 0 Z " fill="#2F6330" transform="translate(331,318)"/>
<path d="M0 0 C0.99 1.32 1.98 2.64 3 4 C2.67 4.66 2.34 5.32 2 6 C1.34 6 0.68 6 0 6 C-0.0825 6.78375 -0.165 7.5675 -0.25 8.375 C-0.4975 9.24125 -0.745 10.1075 -1 11 C-2.98 11.99 -2.98 11.99 -5 13 C-3.35 8.71 -1.7 4.42 0 0 Z " fill="#3A652D" transform="translate(337,304)"/>
<path d="M0 0 C1.79633773 6.1993911 -0.16697933 12.01213249 -2 18 C-2.33 18 -2.66 18 -3 18 C-3.42765417 11.58518742 -1.85743168 6.11404596 0 0 Z " fill="#18341F" transform="translate(3,40)"/>
<path d="M0 0 C-1.33333333 4 -2.66666667 8 -4 12 C-4.66 12 -5.32 12 -6 12 C-5.9129995 10.37399059 -5.8048219 8.74910322 -5.6875 7.125 C-5.62949219 6.22007813 -5.57148438 5.31515625 -5.51171875 4.3828125 C-4.81887225 1.15658073 -3.34638587 0 0 0 Z " fill="#346028" transform="translate(16,38)"/>
<path d="M0 0 C3.67758005 3.28355362 5.81389118 6.62778237 8 11 C7.67 11.66 7.34 12.32 7 13 C6.01 12.67 5.02 12.34 4 12 C4 10.68 4 9.36 4 8 C3.34 7.34 2.68 6.68 2 6 C1.34 5.34 0.68 4.68 0 4 C0 2.68 0 1.36 0 0 Z " fill="#1D3C27" transform="translate(337,25)"/>
<path d="M0 0 C0.33 0.66 0.66 1.32 1 2 C-0.1875 4.5625 -0.1875 4.5625 -2 7 C-4.0625 7.6875 -4.0625 7.6875 -6 8 C-6.66 8.66 -7.32 9.32 -8 10 C-8 7 -8 7 -6.25 5.17578125 C-5.5075 4.56089844 -4.765 3.94601563 -4 3.3125 C-3.2575 2.68988281 -2.515 2.06726563 -1.75 1.42578125 C-1.1725 0.95527344 -0.595 0.48476563 0 0 Z " fill="#B9DD7C" transform="translate(33,19)"/>
<path d="M0 0 C1.09658936 3.28976808 0.79953138 4.71303767 0 8 C-0.66 7.67 -1.32 7.34 -2 7 C-2.99 7.495 -2.99 7.495 -4 8 C-5.32 7.67 -6.64 7.34 -8 7 C-5.36 4.69 -2.72 2.38 0 0 Z " fill="#306126" transform="translate(326,324)"/>
<path d="M0 0 C4.13621084 3.3810038 7.81316569 6.66590534 11 11 C10.01 11.495 10.01 11.495 9 12 C9 11.34 9 10.68 9 10 C8.34 10 7.68 10 7 10 C5.375 8.625 5.375 8.625 4 7 C4 6.34 4 5.68 4 5 C3.01 5 2.02 5 1 5 C0.67 3.35 0.34 1.7 0 0 Z " fill="#B8DD83" transform="translate(320,22)"/>
<path d="M0 0 C-4.84241633 1.33583899 -8.93437617 2.25328119 -14 2 C-12 -1 -12 -1 -8.125 -1.8125 C-4.84985471 -2.1221501 -2.76815287 -1.96077495 0 0 Z " fill="#B1D97F" transform="translate(304,339)"/>
<path d="M0 0 C1.17539996 0.92652701 2.34010577 1.86663387 3.5 2.8125 C4.1496875 3.33457031 4.799375 3.85664063 5.46875 4.39453125 C7 6 7 6 7 9 C5.1875 8.875 5.1875 8.875 3 8 C0 2.96428571 0 2.96428571 0 0 Z " fill="#1F3E2B" transform="translate(329,16)"/>
<path d="M0 0 C0.99 1.485 0.99 1.485 2 3 C2.66 3 3.32 3 4 3 C4 5.31 4 7.62 4 10 C3.01 10.33 2.02 10.66 1 11 C-0.17571451 7.32589215 -0.07366746 3.83070817 0 0 Z " fill="#193E27" transform="translate(0,294)"/>
<path d="M0 0 C-2.54605302 2.00047023 -4.9664636 3.82572785 -8 5 C-8.99 4.67 -9.98 4.34 -11 4 C-11 3.34 -11 2.68 -11 2 C-7.17010894 0.19769832 -4.21878192 -0.19622241 0 0 Z " fill="#1D3929" transform="translate(321,342)"/>
<path d="M0 0 C1.17539996 0.92652701 2.34010577 1.86663387 3.5 2.8125 C4.1496875 3.33457031 4.799375 3.85664063 5.46875 4.39453125 C7 6 7 6 7 9 C6.67 8.34 6.34 7.68 6 7 C4.6846659 6.29848848 3.34882408 5.63474075 2 5 C1.01 4.34 0.02 3.68 -1 3 C-0.67 2.01 -0.34 1.02 0 0 Z " fill="#366128" transform="translate(21,322)"/>
<path d="M0 0 C0.66 0.33 1.32 0.66 2 1 C2 1.66 2 2.32 2 3 C2.33 3.66 2.66 4.32 3 5 C2.0625 7.125 2.0625 7.125 1 9 C0.01 8.67 -0.98 8.34 -2 8 C-1.125 1.125 -1.125 1.125 0 0 Z " fill="#28563F" transform="translate(8,33)"/>
<path d="M0 0 C0.33 0.66 0.66 1.32 1 2 C1.66 2.33 2.32 2.66 3 3 C1.1875 4.5625 1.1875 4.5625 -1 6 C-1.99 5.67 -2.98 5.34 -4 5 C-3 2 -3 2 0 0 Z " fill="#24452C" transform="translate(323,336)"/>
<path d="M0 0 C0.33 0 0.66 0 1 0 C1.05399736 1.45792884 1.09279177 2.91642712 1.125 4.375 C1.14820313 5.18710937 1.17140625 5.99921875 1.1953125 6.8359375 C1 9 1 9 -1 11 C-2.60080151 6.99799622 -1.29279692 3.95443764 0 0 Z " fill="#396627" transform="translate(340,294)"/>
<path d="M0 0 C0 0.99 0 1.98 0 3 C-1.98 3.99 -3.96 4.98 -6 6 C-6.33 5.34 -6.66 4.68 -7 4 C-6 2 -6 2 -2.9375 0.875 C-1.4834375 0.441875 -1.4834375 0.441875 0 0 Z " fill="#1E592B" transform="translate(333,322)"/>
<path d="M0 0 C0.99 0.33 1.98 0.66 3 1 C3 1.66 3 2.32 3 3 C-1.38461538 6 -1.38461538 6 -4 6 C-2.84826645 3.53199953 -1.95216435 1.95216435 0 0 Z " fill="#B7DF82" transform="translate(314,330)"/>
<path d="M0 0 C0.66 0.99 1.32 1.98 2 3 C-0.97 5.475 -0.97 5.475 -4 8 C-4 6.35 -4 4.7 -4 3 C-3.01 3 -2.02 3 -1 3 C-0.67 2.01 -0.34 1.02 0 0 Z " fill="#2A5D2F" transform="translate(16,33)"/>
<path d="M0 0 C0 0.99 0 1.98 0 3 C-2.64 3.33 -5.28 3.66 -8 4 C-7.67 3.01 -7.34 2.02 -7 1 C-2.25 0 -2.25 0 0 0 Z " fill="#305E29" transform="translate(303,339)"/>
<path d="M0 0 C1.98 0.99 1.98 0.99 4 2 C4 4.31 4 6.62 4 9 C2.00902154 6.01353231 1.05875074 3.40312738 0 0 Z " fill="#2F5D1F" transform="translate(335,40)"/>
<path d="M0 0 C2.52588702 2.36292656 3.88820837 3.66462511 5 7 C2.97954558 6.39816251 0.97888961 5.72693904 -1 5 C-1.33 4.34 -1.66 3.68 -2 3 C-1.34 3 -0.68 3 0 3 C0 2.01 0 1.02 0 0 Z " fill="#1E4128" transform="translate(32,339)"/>
<path d="M0 0 C0.33 0 0.66 0 1 0 C1.33 2.97 1.66 5.94 2 9 C1.01 8.67 0.02 8.34 -1 8 C-1.125 2.25 -1.125 2.25 0 0 Z " fill="#BADF7B" transform="translate(11,288)"/>
<path d="M0 0 C2.475 0.495 2.475 0.495 5 1 C5 2.65 5 4.3 5 6 C4.01 6.495 4.01 6.495 3 7 C2.01 4.69 1.02 2.38 0 0 Z " fill="#31612A" transform="translate(331,33)"/>
</svg>
